<?xml version="1.0" encoding="UTF-8" standalone="no"?>
<svg
   version="1.0"
   width="158pt"
   height="158pt"
   viewBox="0 0 158 158"
   preserveAspectRatio="xMidYMid meet"
   id="svg8"
   sodipodi:docname="icon.svg"
   inkscape:version="1.1 (c4e8f9ed74, 2021-05-24)"
   inkscape:export-filename="/home/seb/Projects/roll20dark/src/icon.png"
   inkscape:export-xdpi="58.329113"
   inkscape:export-ydpi="58.329113"
   xmlns:inkscape="http://www.inkscape.org/namespaces/inkscape"
   xmlns:sodipodi="http://sodipodi.sourceforge.net/DTD/sodipodi-0.dtd"
   xmlns:xlink="http://www.w3.org/1999/xlink"
   xmlns="http://www.w3.org/2000/svg"
   xmlns:svg="http://www.w3.org/2000/svg">
  <defs
     id="defs12">
    <linearGradient
       inkscape:collect="always"
       id="linearGradient16953">
      <stop
         style="stop-color:#2e2e2e;stop-opacity:1"
         offset="0"
         id="stop16949" />
      <stop
         style="stop-color:#121212;stop-opacity:1"
         offset="1"
         id="stop16951" />
    </linearGradient>
    <linearGradient
       id="linearGradient13171"
       inkscape:swatch="solid">
      <stop
         style="stop-color:#808080;stop-opacity:1;"
         offset="0"
         id="stop13169" />
    </linearGradient>
    <linearGradient
       inkscape:collect="always"
       xlink:href="#linearGradient16953"
       id="linearGradient16955"
       x1="694.96442"
       y1="1680.7295"
       x2="690.69873"
       y2="-43.217964"
       gradientUnits="userSpaceOnUse" />
    <linearGradient
       inkscape:collect="always"
       xlink:href="#linearGradient16953"
       id="linearGradient917"
       gradientUnits="userSpaceOnUse"
       x1="694.96442"
       y1="1680.7295"
       x2="690.69873"
       y2="-43.217964" />
    <linearGradient
       inkscape:collect="always"
       xlink:href="#linearGradient16953"
       id="linearGradient919"
       gradientUnits="userSpaceOnUse"
       x1="694.96442"
       y1="1680.7295"
       x2="690.69873"
       y2="-43.217964" />
  </defs>
  <sodipodi:namedview
     id="namedview10"
     pagecolor="#505050"
     bordercolor="#eeeeee"
     borderopacity="1"
     inkscape:pageshadow="0"
     inkscape:pageopacity="0"
     inkscape:pagecheckerboard="0"
     inkscape:document-units="pt"
     showgrid="false"
     inkscape:zoom="2.5274592"
     inkscape:cx="120.47672"
     inkscape:cy="122.85065"
     inkscape:window-width="1860"
     inkscape:window-height="996"
     inkscape:window-x="0"
     inkscape:window-y="0"
     inkscape:window-maximized="1"
     inkscape:current-layer="g841"
     width="158pt" />
  <g
     transform="matrix(0.1,0,0,-0.1,0,158)"
     fill="#000000"
     stroke="none"
     id="g6"
     style="fill:#808080">
    <g
       id="g12893"
       style="opacity:1;fill:#e6e6e6;fill-opacity:1;fill-rule:evenodd">
      <g
         id="g12887"
         style="fill:#e6e6e6;fill-opacity:1;fill-rule:evenodd">
        <g
           id="g16586">
          <g
             id="g16893"
             style="fill:url(#linearGradient16955);fill-opacity:1">
            <g
               id="g841">
              <g
                 id="g849"
                 style="fill:url(#linearGradient919)"
                 transform="matrix(0.92267416,0,0,0.92267416,134.90135,61.087414)">
                <path
                   d="m 370.875,1404 c -293,-170 -322,-190 -346,-236 -21,-40 -21,-716 0,-756 25,-48 66,-76 352,-240 265,-153 285,-162 334,-162 49,0 69,9 334,162 154,89 294,173 309,187 57,52 57,50 57,433 0,330 -1,355 -19,384 -28,45 -55,64 -357,238 -259,149 -274,156 -325,156 -51,-1 -68,-9 -339,-166 z m 310,-198 v -45 l -57,-11 c -32,-7 -95,-20 -140,-30 -46,-10 -83,-15 -83,-11 0,6 258,139 273,140 4,1 7,-19 7,-43 z m 190,-22 c 120,-61 162,-92 108,-79 -66,15 -248,55 -252,55 -3,0 -6,20 -6,45 0,25 4,45 10,45 5,0 68,-30 140,-66 z m -226,-96 c -35,-70 -236,-418 -244,-423 -9,-5 -106,373 -97,381 6,6 304,71 335,73 22,1 22,1 6,-31 z m 285,-3 c 90,-19 166,-37 169,-39 8,-8 -90,-386 -98,-381 -8,5 -209,353 -244,423 -12,24 -13,32 -4,32 7,0 87,-16 177,-35 z m -195,-28 c 16,-28 76,-134 133,-234 56,-100 103,-187 103,-193 0,-7 -89,-10 -270,-10 -181,0 -270,3 -270,10 0,6 47,93 103,193 57,100 117,206 133,234 16,29 31,53 34,53 3,0 18,-24 34,-53 z m -394,-306 c 16,-73 30,-135 30,-137 0,-2 -13,-10 -29,-18 -28,-15 -29,-14 -35,7 -4,19 -9,264 -6,292 3,17 8,-4 40,-144 z m 761,7 c -1,-73 -4,-143 -7,-155 -6,-22 -7,-22 -36,-7 -22,11 -29,21 -25,35 3,10 17,75 33,144 15,69 29,123 32,121 2,-3 3,-65 3,-138 z m -151,-177 c 0,-11 -238,-231 -250,-231 -12,0 -250,221 -250,231 0,5 113,9 250,9 142,0 250,-4 250,-9 z m -469,-82 c 50,-45 87,-84 85,-86 -3,-3 -57,25 -122,63 l -116,67 23,18 c 13,10 28,19 33,19 4,0 48,-37 97,-81 z m 568,62 23,-18 -115,-66 c -63,-37 -118,-67 -123,-67 -12,1 168,169 181,169 6,1 21,-8 34,-18 z"
                   id="path2"
                   style="fill:url(#linearGradient917);fill-opacity:1;fill-rule:evenodd" />
                <g
                   aria-label="20"
                   transform="scale(1.0061201,-0.99391712)"
                   id="text3395"
                   style="font-size:211.369px;fill:#181818;fill-opacity:1;stroke-width:5.28421">
                  <path
                     style="color:#000000;-inkscape-font-specification:'Ubuntu Bold';fill:#181818;fill-opacity:1;fill-rule:nonzero;-inkscape-stroke:none"
                     d="m 690.35703,-829.39372 q 0,8.03203 -3.17053,15.42994 -3.17054,7.39792 -8.2434,14.37309 -5.07285,6.76381 -11.41392,13.10488 -6.34107,6.34107 -12.47077,12.04803 -3.17054,2.95917 -6.97518,6.76381 -3.59327,3.59328 -6.97518,7.39792 -3.3819,3.80464 -6.1297,7.18654 -2.53643,3.17054 -3.17053,5.28423 h 62.98796 v 26.42112 H 597.1433 q -0.42274,-2.32505 -0.42274,-5.91833 0,-3.59327 0,-5.07285 0,-10.14572 3.17054,-18.60048 3.3819,-8.45476 8.66613,-15.6413 5.28422,-7.39792 11.83666,-13.73899 6.76381,-6.34107 13.31625,-12.68214 5.07285,-4.86148 9.5116,-9.08886 4.43875,-4.43875 7.82066,-8.45476 3.3819,-4.22738 5.28422,-8.2434 1.90232,-4.22738 1.90232,-8.45476 0,-9.30023 -5.28422,-13.10487 -5.28423,-3.80465 -13.10488,-3.80465 -5.70696,0 -10.77982,1.90232 -4.86149,1.69096 -9.08887,4.22738 -4.01601,2.32506 -6.97517,4.86149 -2.95917,2.32506 -4.43875,3.80464 l -15.64131,-21.98237 q 9.30024,-8.66613 21.55964,-14.16173 12.47077,-5.70696 26.63249,-5.70696 12.89351,0 22.19375,2.95917 9.30023,2.95916 15.21857,8.45476 6.1297,5.28422 8.87749,13.10488 2.95917,7.60928 2.95917,17.33225 z"
                     id="path16559" />
                  <path
                     style="color:#000000;-inkscape-font-specification:'Ubuntu Bold';fill:#181818;fill-opacity:1;fill-rule:nonzero;-inkscape-stroke:none"
                     d="m 818.44641,-794.94057 q 0,36.98958 -14.16172,56.85826 -13.95036,19.65732 -38.68053,19.65732 -24.73017,0 -38.8919,-19.65732 -13.95035,-19.86868 -13.95035,-56.85826 0,-18.3891 3.59327,-32.55082 3.80464,-14.16173 10.77982,-23.8847 6.97518,-9.72298 16.69815,-14.79583 9.72298,-5.07286 21.77101,-5.07286 24.73017,0 38.68053,19.86869 14.16172,19.65732 14.16172,56.43552 z m -32.12809,0 q 0,-10.99119 -1.05684,-19.86868 -1.05685,-9.08887 -3.38191,-15.64131 -2.32506,-6.55244 -6.34107,-10.14571 -4.01601,-3.59328 -9.93434,-3.59328 -5.91833,0 -9.93434,3.59328 -3.80465,3.59327 -6.34107,10.14571 -2.32506,6.55244 -3.38191,15.64131 -1.05684,8.87749 -1.05684,19.86868 0,10.99119 1.05684,20.08006 1.05685,9.08886 3.38191,15.6413 2.53642,6.55244 6.34107,10.14572 4.01601,3.59327 9.93434,3.59327 5.91833,0 9.93434,-3.59327 4.01601,-3.59328 6.34107,-10.14572 2.32506,-6.55244 3.38191,-15.6413 1.05684,-9.08887 1.05684,-20.08006 z"
                     id="path16561" />
                </g>
              </g>
            </g>
          </g>
        </g>
      </g>
    </g>
  </g>
</svg>
